<svg width="36" height="36" viewBox="0 0 36 36" fill="none" xmlns="http://www.w3.org/2000/svg">
    <g clip-path="url(#q3x5od4nla)" fill="#B5B5B5">
        <path d="M25.19 20.4c.287-.767.433-1.58.43-2.4a6.86 6.86 0 0 0-6.86-6.86 6.79 6.79 0 0 0-2.37.43L18 13.23A4.87 4.87 0 0 1 23.62 18c0 .248-.021.495-.06.74l1.63 1.66z"/>
        <path d="M34.29 17.53c-3.37-6.23-9.28-10-15.82-10a16.82 16.82 0 0 0-5.24.85L14.84 10a14.78 14.78 0 0 1 3.63-.47c5.63 0 10.75 3.14 13.8 8.43a17.751 17.751 0 0 1-4.37 5.1l1.42 1.42a19.931 19.931 0 0 0 5-6l.26-.48-.29-.47zM4.87 5.78l4.46 4.46a19.52 19.52 0 0 0-6.69 7.29l-.26.47.26.48c3.37 6.23 9.28 10 15.82 10a16.93 16.93 0 0 0 7.37-1.69l5 5 1.75-1.5-26-26-1.71 1.49zm9.75 9.75 6.65 6.65a4.81 4.81 0 0 1-2.5.72A4.868 4.868 0 0 1 13.9 18a4.81 4.81 0 0 1 .72-2.47zm-1.45-1.45a6.85 6.85 0 0 0 9.55 9.55l1.6 1.6a14.912 14.912 0 0 1-5.86 1.2c-5.63 0-10.75-3.14-13.8-8.43a17.29 17.29 0 0 1 6.12-6.3l2.39 2.38z"/>
    </g>
    <defs>
        <clipPath id="q3x5od4nla">
            <path fill="#fff" d="M0 0h36v36H0z"/>
        </clipPath>
    </defs>
</svg>
