<svg width="30" height="30" viewBox="0 0 30 30" fill="none" xmlns="http://www.w3.org/2000/svg">
    <g clip-path="url(#mzl6ru7zea)">
        <path d="M26.667 5H3.333a1.667 1.667 0 0 0-1.666 1.667v16.666A1.666 1.666 0 0 0 3.333 25h23.334a1.667 1.667 0 0 0 1.666-1.667V6.667A1.667 1.667 0 0 0 26.667 5zm-1.284 18.333H4.717L10.55 17.3l-1.2-1.158-6.017 6.225V7.933l10.359 10.309a1.667 1.667 0 0 0 2.35 0L26.667 7.675v14.583l-6.134-6.133-1.175 1.175 6.025 6.033zM4.425 6.667h20.892l-10.45 10.391L4.425 6.667z" fill="#3298CB"/>
    </g>
    <defs>
        <clipPath id="mzl6ru7zea">
            <path fill="#fff" d="M0 0h30v30H0z"/>
        </clipPath>
    </defs>
</svg>
