<svg width="278" height="80" viewBox="0 0 278 80" fill="none" xmlns="http://www.w3.org/2000/svg">
<rect x="0.75" y="0.75" width="276.5" height="78.5" rx="11.25" stroke="#3298CB" stroke-width="1.5"/>
<path d="M74.2983 50H67.706V29.6364H74.5071C76.5024 29.6364 78.2159 30.044 79.6477 30.8594C81.0795 31.6681 82.1766 32.8314 82.9389 34.3494C83.7079 35.8608 84.0923 37.6738 84.0923 39.7884C84.0923 41.9096 83.7045 43.7325 82.929 45.2571C82.16 46.7817 81.0464 47.955 79.5881 48.777C78.1297 49.5923 76.3665 50 74.2983 50ZM70.7784 47.3153H74.1293C75.6804 47.3153 76.9697 47.0237 77.9972 46.4403C79.0246 45.8504 79.7936 44.9986 80.304 43.8849C80.8144 42.7647 81.0696 41.3991 81.0696 39.7884C81.0696 38.1908 80.8144 36.8352 80.304 35.7216C79.8002 34.608 79.0478 33.7628 78.0469 33.1861C77.0459 32.6094 75.803 32.321 74.3182 32.321H70.7784V47.3153ZM94.1076 50.3082C92.6758 50.3082 91.4263 49.9801 90.359 49.3239C89.2918 48.6676 88.4632 47.7495 87.8732 46.5696C87.2833 45.3897 86.9883 44.0109 86.9883 42.4332C86.9883 40.849 87.2833 39.4635 87.8732 38.277C88.4632 37.0904 89.2918 36.169 90.359 35.5128C91.4263 34.8565 92.6758 34.5284 94.1076 34.5284C95.5394 34.5284 96.7889 34.8565 97.8562 35.5128C98.9234 36.169 99.752 37.0904 100.342 38.277C100.932 39.4635 101.227 40.849 101.227 42.4332C101.227 44.0109 100.932 45.3897 100.342 46.5696C99.752 47.7495 98.9234 48.6676 97.8562 49.3239C96.7889 49.9801 95.5394 50.3082 94.1076 50.3082ZM94.1175 47.8125C95.0456 47.8125 95.8145 47.5672 96.4244 47.0767C97.0342 46.5862 97.485 45.9332 97.7766 45.1179C98.0749 44.3026 98.2241 43.4044 98.2241 42.4233C98.2241 41.4489 98.0749 40.554 97.7766 39.7386C97.485 38.9167 97.0342 38.2571 96.4244 37.7599C95.8145 37.2628 95.0456 37.0142 94.1175 37.0142C93.1829 37.0142 92.4073 37.2628 91.7908 37.7599C91.181 38.2571 90.7269 38.9167 90.4286 39.7386C90.137 40.554 89.9911 41.4489 89.9911 42.4233C89.9911 43.4044 90.137 44.3026 90.4286 45.1179C90.7269 45.9332 91.181 46.5862 91.7908 47.0767C92.4073 47.5672 93.1829 47.8125 94.1175 47.8125ZM107.392 50L102.897 34.7273H105.97L108.963 45.9432H109.112L112.115 34.7273H115.187L118.17 45.8935H118.319L121.292 34.7273H124.365L119.88 50H116.848L113.745 38.973H113.517L110.414 50H107.392ZM130.159 40.9318V50H127.186V34.7273H130.04V37.2131H130.229C130.58 36.4044 131.13 35.7547 131.879 35.2642C132.635 34.7737 133.586 34.5284 134.733 34.5284C135.774 34.5284 136.685 34.7472 137.467 35.1847C138.25 35.6155 138.856 36.2585 139.287 37.1136C139.718 37.9687 139.933 39.026 139.933 40.2855V50H136.96V40.6435C136.96 39.5365 136.672 38.6714 136.095 38.0483C135.518 37.4186 134.726 37.1037 133.719 37.1037C133.029 37.1037 132.416 37.2528 131.879 37.5511C131.349 37.8494 130.928 38.2869 130.616 38.8636C130.312 39.4337 130.159 40.1231 130.159 40.9318ZM146.893 29.6364V50H143.92V29.6364H146.893ZM157.326 50.3082C155.895 50.3082 154.645 49.9801 153.578 49.3239C152.511 48.6676 151.682 47.7495 151.092 46.5696C150.502 45.3897 150.207 44.0109 150.207 42.4332C150.207 40.849 150.502 39.4635 151.092 38.277C151.682 37.0904 152.511 36.169 153.578 35.5128C154.645 34.8565 155.895 34.5284 157.326 34.5284C158.758 34.5284 160.008 34.8565 161.075 35.5128C162.142 36.169 162.971 37.0904 163.561 38.277C164.151 39.4635 164.446 40.849 164.446 42.4332C164.446 44.0109 164.151 45.3897 163.561 46.5696C162.971 47.7495 162.142 48.6676 161.075 49.3239C160.008 49.9801 158.758 50.3082 157.326 50.3082ZM157.336 47.8125C158.264 47.8125 159.033 47.5672 159.643 47.0767C160.253 46.5862 160.704 45.9332 160.995 45.1179C161.294 44.3026 161.443 43.4044 161.443 42.4233C161.443 41.4489 161.294 40.554 160.995 39.7386C160.704 38.9167 160.253 38.2571 159.643 37.7599C159.033 37.2628 158.264 37.0142 157.336 37.0142C156.402 37.0142 155.626 37.2628 155.01 37.7599C154.4 38.2571 153.946 38.9167 153.647 39.7386C153.356 40.554 153.21 41.4489 153.21 42.4233C153.21 43.4044 153.356 44.3026 153.647 45.1179C153.946 45.9332 154.4 46.5862 155.01 47.0767C155.626 47.5672 156.402 47.8125 157.336 47.8125ZM172.209 50.3381C171.241 50.3381 170.366 50.1591 169.584 49.8011C168.802 49.4366 168.182 48.9096 167.724 48.2202C167.274 47.5308 167.048 46.6856 167.048 45.6847C167.048 44.8229 167.214 44.1136 167.545 43.5568C167.877 43 168.324 42.5592 168.888 42.2344C169.451 41.9096 170.081 41.6643 170.777 41.4986C171.473 41.3329 172.182 41.2069 172.905 41.1207C173.82 41.0147 174.562 40.9285 175.132 40.8622C175.702 40.7893 176.116 40.6733 176.375 40.5142C176.634 40.3551 176.763 40.0966 176.763 39.7386V39.669C176.763 38.8007 176.518 38.1278 176.027 37.6506C175.543 37.1733 174.821 36.9347 173.859 36.9347C172.858 36.9347 172.07 37.1567 171.493 37.6009C170.923 38.0384 170.528 38.5256 170.31 39.0625L167.516 38.4261C167.847 37.4981 168.331 36.7491 168.967 36.179C169.61 35.6023 170.349 35.1847 171.185 34.9261C172.02 34.661 172.898 34.5284 173.82 34.5284C174.429 34.5284 175.076 34.6013 175.759 34.7472C176.448 34.8864 177.091 35.1449 177.688 35.5227C178.291 35.9006 178.785 36.4408 179.169 37.1435C179.554 37.8395 179.746 38.7443 179.746 39.858V50H176.842V47.9119H176.723C176.531 48.2964 176.242 48.6742 175.858 49.0455C175.473 49.4167 174.98 49.7249 174.376 49.9702C173.773 50.2154 173.051 50.3381 172.209 50.3381ZM172.855 47.9517C173.677 47.9517 174.38 47.7893 174.963 47.4645C175.553 47.1397 176 46.7154 176.305 46.1918C176.617 45.6615 176.773 45.0947 176.773 44.4915V42.5227C176.667 42.6288 176.461 42.7282 176.156 42.821C175.858 42.9072 175.517 42.9834 175.132 43.0497C174.748 43.1094 174.373 43.1657 174.009 43.2188C173.644 43.2652 173.339 43.3049 173.094 43.3381C172.517 43.411 171.99 43.5336 171.513 43.706C171.042 43.8783 170.664 44.1269 170.379 44.4517C170.101 44.7699 169.962 45.1941 169.962 45.7244C169.962 46.4602 170.233 47.017 170.777 47.3949C171.321 47.7661 172.013 47.9517 172.855 47.9517ZM189.423 50.2983C188.19 50.2983 187.09 49.9834 186.122 49.3537C185.161 48.7173 184.405 47.8125 183.855 46.6392C183.311 45.4593 183.039 44.044 183.039 42.3935C183.039 40.7429 183.315 39.331 183.865 38.1577C184.422 36.9844 185.184 36.0862 186.152 35.4631C187.119 34.84 188.217 34.5284 189.443 34.5284C190.391 34.5284 191.153 34.6875 191.73 35.0057C192.313 35.3172 192.764 35.6818 193.082 36.0994C193.407 36.517 193.659 36.8849 193.838 37.2031H194.017V29.6364H196.99V50H194.086V47.6236H193.838C193.659 47.9484 193.4 48.3196 193.062 48.7372C192.731 49.1548 192.273 49.5194 191.69 49.831C191.107 50.1425 190.351 50.2983 189.423 50.2983ZM190.079 47.7628C190.934 47.7628 191.657 47.5374 192.247 47.0866C192.843 46.6293 193.294 45.9962 193.599 45.1875C193.911 44.3788 194.066 43.4375 194.066 42.3636C194.066 41.303 193.914 40.375 193.609 39.5795C193.304 38.7841 192.857 38.1643 192.267 37.7202C191.677 37.276 190.948 37.054 190.079 37.054C189.184 37.054 188.439 37.286 187.842 37.75C187.245 38.214 186.795 38.8471 186.49 39.6491C186.191 40.4512 186.042 41.3561 186.042 42.3636C186.042 43.3845 186.195 44.3026 186.5 45.1179C186.805 45.9332 187.255 46.5795 187.852 47.0568C188.455 47.5275 189.198 47.7628 190.079 47.7628ZM213.088 50.3381C212.12 50.3381 211.245 50.1591 210.463 49.8011C209.681 49.4366 209.061 48.9096 208.603 48.2202C208.153 47.5308 207.927 46.6856 207.927 45.6847C207.927 44.8229 208.093 44.1136 208.424 43.5568C208.756 43 209.203 42.5592 209.767 42.2344C210.33 41.9096 210.96 41.6643 211.656 41.4986C212.352 41.3329 213.061 41.2069 213.784 41.1207C214.699 41.0147 215.441 40.9285 216.011 40.8622C216.581 40.7893 216.995 40.6733 217.254 40.5142C217.512 40.3551 217.642 40.0966 217.642 39.7386V39.669C217.642 38.8007 217.396 38.1278 216.906 37.6506C216.422 37.1733 215.699 36.9347 214.738 36.9347C213.737 36.9347 212.949 37.1567 212.372 37.6009C211.802 38.0384 211.407 38.5256 211.189 39.0625L208.395 38.4261C208.726 37.4981 209.21 36.7491 209.846 36.179C210.489 35.6023 211.228 35.1847 212.064 34.9261C212.899 34.661 213.777 34.5284 214.699 34.5284C215.308 34.5284 215.955 34.6013 216.637 34.7472C217.327 34.8864 217.97 35.1449 218.566 35.5227C219.17 35.9006 219.663 36.4408 220.048 37.1435C220.432 37.8395 220.625 38.7443 220.625 39.858V50H217.721V47.9119H217.602C217.41 48.2964 217.121 48.6742 216.737 49.0455C216.352 49.4167 215.859 49.7249 215.255 49.9702C214.652 50.2154 213.93 50.3381 213.088 50.3381ZM213.734 47.9517C214.556 47.9517 215.259 47.7893 215.842 47.4645C216.432 47.1397 216.879 46.7154 217.184 46.1918C217.496 45.6615 217.652 45.0947 217.652 44.4915V42.5227C217.546 42.6288 217.34 42.7282 217.035 42.821C216.737 42.9072 216.395 42.9834 216.011 43.0497C215.627 43.1094 215.252 43.1657 214.887 43.2188C214.523 43.2652 214.218 43.3049 213.973 43.3381C213.396 43.411 212.869 43.5336 212.392 43.706C211.921 43.8783 211.543 44.1269 211.258 44.4517C210.98 44.7699 210.841 45.1941 210.841 45.7244C210.841 46.4602 211.112 47.017 211.656 47.3949C212.199 47.7661 212.892 47.9517 213.734 47.9517ZM227.558 29.6364V50H224.585V29.6364H227.558ZM234.53 29.6364V50H231.557V29.6364H234.53Z" fill="#3298CB"/>
<path d="M38 57C47.9411 57 56 48.9411 56 39C56 29.0589 47.9411 21 38 21C28.0589 21 20 29.0589 20 39C20 48.9411 28.0589 57 38 57Z" fill="#3298CB" fill-opacity="0.2"/>
<path d="M33.5 26.0625H45.875C46.1844 26.0625 46.4375 26.3156 46.4375 26.625V49.6875C46.4375 49.9969 46.1844 50.25 45.875 50.25H28.4375C28.1281 50.25 27.875 49.9969 27.875 49.6875V31.9688L33.5 26.0625Z" fill="white"/>
</svg>
