<svg width="34" height="34" viewBox="0 0 34 34" fill="none" xmlns="http://www.w3.org/2000/svg">
<circle cx="17" cy="17" r="17" fill="#E03535" fill-opacity="0.1"/>
<path d="M10.4895 10.4896C10.5796 10.3992 10.6867 10.3275 10.8047 10.2786C10.9226 10.2297 11.049 10.2045 11.1766 10.2045C11.3043 10.2045 11.4307 10.2297 11.5486 10.2786C11.6665 10.3275 11.7736 10.3992 11.8638 10.4896L17 15.6277L22.1361 10.4896C22.2264 10.3994 22.3335 10.3278 22.4514 10.2789C22.5693 10.2301 22.6957 10.205 22.8233 10.205C22.9509 10.205 23.0773 10.2301 23.1952 10.2789C23.3131 10.3278 23.4202 10.3994 23.5104 10.4896C23.6007 10.5798 23.6722 10.687 23.7211 10.8049C23.7699 10.9228 23.795 11.0491 23.795 11.1768C23.795 11.3044 23.7699 11.4307 23.7211 11.5486C23.6722 11.6665 23.6007 11.7737 23.5104 11.8639L18.3723 17.0001L23.5104 22.1362C23.6007 22.2265 23.6722 22.3336 23.7211 22.4515C23.7699 22.5694 23.795 22.6958 23.795 22.8234C23.795 22.951 23.7699 23.0774 23.7211 23.1953C23.6722 23.3132 23.6007 23.4203 23.5104 23.5105C23.4202 23.6008 23.3131 23.6724 23.1952 23.7212C23.0773 23.77 22.9509 23.7952 22.8233 23.7952C22.6957 23.7952 22.5693 23.77 22.4514 23.7212C22.3335 23.6724 22.2264 23.6008 22.1361 23.5105L17 18.3724L11.8638 23.5105C11.7735 23.6008 11.6664 23.6724 11.5485 23.7212C11.4306 23.77 11.3042 23.7952 11.1766 23.7952C11.049 23.7952 10.9227 23.77 10.8047 23.7212C10.6868 23.6724 10.5797 23.6008 10.4895 23.5105C10.3992 23.4203 10.3277 23.3132 10.2788 23.1953C10.23 23.0774 10.2049 22.951 10.2049 22.8234C10.2049 22.6958 10.23 22.5694 10.2788 22.4515C10.3277 22.3336 10.3992 22.2265 10.4895 22.1362L15.6276 17.0001L10.4895 11.8639C10.3991 11.7738 10.3274 11.6666 10.2785 11.5487C10.2295 11.4308 10.2043 11.3044 10.2043 11.1768C10.2043 11.0491 10.2295 10.9227 10.2785 10.8048C10.3274 10.6869 10.3991 10.5798 10.4895 10.4896Z" fill="#E03535"/>
</svg>
