<svg width="168" height="168" viewBox="0 0 168 168" fill="none" xmlns="http://www.w3.org/2000/svg">
<g clip-path="url(#clip0_3_1028)">
<path d="M84 168C130.392 168 168 130.392 168 84C168 37.6081 130.392 0 84 0C37.6081 0 0 37.6081 0 84C0 130.392 37.6081 168 84 168Z" fill="#3298CB" fill-opacity="0.2"/>
<path d="M63 23.625H120.75C122.194 23.625 123.375 24.8062 123.375 26.25V133.875C123.375 135.319 122.194 136.5 120.75 136.5H39.375C37.9312 136.5 36.75 135.319 36.75 133.875V51.1875L63 23.625Z" fill="white"/>
<path d="M60.375 51.1875C61.8188 51.1875 63 50.0063 63 48.5625V23.625L36.75 51.1875H60.375Z" fill="#E6E6E6"/>
<path d="M115.5 145.688C124.923 145.688 132.562 138.048 132.562 128.625C132.562 119.202 124.923 111.562 115.5 111.562C106.077 111.562 98.4375 119.202 98.4375 128.625C98.4375 138.048 106.077 145.688 115.5 145.688Z" fill="#3298CB"/>
<path d="M115.5 139.125C114.774 139.125 114.188 138.538 114.188 137.812V119.438C114.188 118.712 114.774 118.125 115.5 118.125C116.226 118.125 116.812 118.712 116.812 119.438V137.812C116.812 138.538 116.226 139.125 115.5 139.125Z" fill="#F5F5F5"/>
<path d="M124.688 129.938H106.312C105.587 129.938 105 129.351 105 128.625C105 127.899 105.587 127.312 106.312 127.312H124.688C125.413 127.312 126 127.899 126 128.625C126 129.351 125.413 129.938 124.688 129.938Z" fill="#F5F5F5"/>
</g>
<defs>
<clipPath id="clip0_3_1028">
<rect width="168" height="168" fill="white"/>
</clipPath>
</defs>
</svg>
