<svg width="393" height="291" viewBox="0 0 393 291" fill="none" xmlns="http://www.w3.org/2000/svg">
<g clip-path="url(#clip0_2_10)">
<path d="M245.494 39.1231C252.223 43.8354 260.606 44.6831 268.59 44.1367C273.182 43.822 277.729 43.0828 282.305 42.6088C284.587 42.3718 286.878 42.2004 289.172 42.183H289.558C289.505 42.183 289.192 42.1763 289.502 42.183C289.776 42.183 290.049 42.1923 290.323 42.2004C290.863 42.2164 291.403 42.2423 291.941 42.278C292.942 42.3441 293.94 42.4414 294.936 42.57C296.121 42.7226 297.3 42.9208 298.472 43.1645C299.038 43.2824 299.602 43.41 300.165 43.5475C300.432 43.6118 300.693 43.6787 300.95 43.7484L301.285 43.8381C301.999 44.0296 301.011 43.7484 301.418 43.8756C303.672 44.5547 305.879 45.3782 308.028 46.3409C309.26 46.9046 310.939 46.2538 311.421 44.9656C311.925 43.6185 311.366 42.1642 310.05 41.5616C302.04 37.8912 293.326 36.5695 284.571 37.2002C280.024 37.5283 275.519 38.2594 270.987 38.7241C268.943 38.9343 266.893 39.091 264.837 39.1258C264.623 39.1258 264.411 39.1258 264.197 39.1258C264.075 39.1258 263.689 39.1512 264.251 39.1258C264.145 39.1258 264.037 39.1258 263.93 39.1258C263.432 39.1178 262.934 39.1017 262.437 39.0776C261.514 39.0321 260.594 38.9584 259.677 38.8499C258.625 38.7267 257.58 38.5594 256.544 38.3384C256.03 38.2286 255.521 38.096 255.011 37.9702C255.537 38.1041 254.841 37.9179 254.651 37.8604C254.417 37.788 254.185 37.7117 253.954 37.634C252.966 37.299 252 36.9014 251.063 36.4436C250.594 36.2133 250.128 35.9669 249.681 35.7044C250.156 35.9816 249.49 35.5705 249.359 35.4915C249.123 35.3379 248.891 35.1799 248.661 35.0174C247.552 34.2408 245.857 34.301 245.031 35.4835C244.254 36.5869 244.31 38.2956 245.496 39.1245L245.494 39.1231Z" fill="#DFF2F2"/>
<path d="M76.5908 50.5711C77.8875 49.0124 79.2398 47.5028 80.6478 46.0423C80.8307 45.8534 81.0162 45.6673 81.1991 45.4785C81.4034 45.2669 81.1564 45.52 81.127 45.5481L81.3673 45.3111C81.7394 44.9406 82.1163 44.5742 82.4981 44.2117C83.2314 43.5127 83.9781 42.828 84.7382 42.1575C87.7779 39.4739 91.0161 37.0253 94.4248 34.8327C94.9303 34.5077 95.439 34.1885 95.9507 33.8752L96.6249 33.4735L96.9146 33.3007C97.5353 32.9311 96.6476 33.4494 97.0147 33.2405C98.0239 32.662 99.0399 32.0995 100.07 31.5612C101.272 30.9345 102.09 29.507 101.459 28.1639C100.904 26.9802 99.3576 26.099 98.072 26.7713C90.3874 30.7913 83.3684 35.9786 77.2636 42.1495C75.594 43.826 74.0027 45.5776 72.4897 47.4041C71.6206 48.4486 71.8422 50.2551 72.9543 51.0438C73.5023 51.4511 74.1861 51.6301 74.8626 51.5433C75.5392 51.4564 76.156 51.1104 76.5841 50.5778L76.5908 50.5711Z" fill="#DFF2F2"/>
<path d="M62.1475 114.427C62.1889 114.745 62.2236 115.061 62.2423 115.381C62.2503 115.515 62.253 115.635 62.2596 115.763C62.2904 116.391 62.2837 115.372 62.2596 115.736C62.235 116.34 62.1762 116.943 62.0834 117.541C62.03 117.856 61.9499 118.165 61.8885 118.478C61.7857 118.959 61.994 118.172 61.8885 118.478C61.8378 118.63 61.7951 118.784 61.743 118.935C61.5485 119.51 61.3161 120.071 61.0475 120.615C60.9296 120.877 60.7958 121.13 60.647 121.375C60.8232 121.107 60.8005 121.116 60.6336 121.375C60.5482 121.509 60.4587 121.643 60.3666 121.776C60.0224 122.274 59.6446 122.748 59.2359 123.195C59.1932 123.243 59.1491 123.288 59.1024 123.335C58.9716 123.472 59.0161 123.427 59.2359 123.201C59.2359 123.252 59.0009 123.428 58.9595 123.469C58.7272 123.685 58.4856 123.892 58.2373 124.09C57.989 124.289 57.7314 124.477 57.4684 124.656C57.3629 124.726 57.2548 124.789 57.1493 124.863C56.6046 125.221 57.6392 124.595 57.0692 124.911C55.8877 125.565 55.04 126.945 55.6808 128.309C56.2255 129.468 57.7981 130.403 59.0663 129.701C64.7 126.584 68.1336 120.247 67.2712 113.774C67.0923 112.428 65.76 111.287 64.3769 111.528C62.9939 111.769 61.9472 112.991 62.1395 114.433L62.1475 114.427Z" fill="#DFF2F2"/>
<path d="M348.258 164.411C348.834 167.407 349.177 170.444 349.284 173.494C349.297 173.871 349.307 174.247 349.312 174.623C349.312 174.79 349.312 174.956 349.312 175.124C349.312 175.184 349.312 175.843 349.312 175.525C349.312 175.257 349.312 175.757 349.312 175.804C349.312 176.013 349.304 176.222 349.297 176.43C349.287 176.807 349.273 177.183 349.255 177.558C349.183 179.103 349.044 180.638 348.854 182.178C348.686 183.517 349.645 184.978 351.052 185.115C352.428 185.248 353.798 184.353 353.979 182.91C354.786 176.531 354.587 170.065 353.391 163.748C353.136 162.418 351.933 161.253 350.495 161.504C349.184 161.733 347.984 162.977 348.258 164.408V164.411Z" fill="#DFF2F2"/>
<path d="M342.76 129.669C337.24 188.203 374.463 233.463 248.947 247.242C226.729 249.679 196.024 251.425 170.112 250.921C149.118 250.519 126.028 248.644 105.624 243.353C71.9263 234.601 46.8246 216.822 46.045 182.193C45.244 146.759 80.3621 123.631 74.7472 109.078C57.355 64.0371 85.5605 31.2546 141.269 19.6124C211.757 4.88235 240.208 53.6738 268.954 47.3318C315.54 37.0341 348.378 70.0778 342.76 129.669Z" fill="#DFF2F2"/>
<path d="M80.291 75.9696L191.461 35.272L244.516 181.091L133.346 221.789L80.291 75.9696Z" fill="#C4E4E8"/>
<path d="M151.857 81.819C153.62 86.6874 157.04 90.7753 161.513 93.362C161.768 93.5093 162.024 93.6513 162.286 93.7906C166.587 96.0581 171.514 96.8359 176.301 96.0028C181.088 95.1696 185.466 92.7723 188.753 89.1841C191.398 86.2973 193.229 82.7565 194.058 78.9254C194.887 75.0943 194.684 71.1108 193.471 67.3841C192.258 63.6574 190.078 60.3217 187.155 57.7197C184.231 55.1176 180.67 53.3428 176.837 52.5777C173.004 51.8125 169.037 52.0845 165.343 53.3658C161.649 54.647 158.362 56.8913 155.819 59.8683C153.276 62.8452 151.569 66.4474 150.872 70.305C150.176 74.1627 150.516 78.1367 151.857 81.819Z" fill="#E9F4F6"/>
<path d="M158.77 68.973C161.133 58.445 169.316 57.3925 169.316 57.3925C171.865 57.1555 174.338 57.892 176.366 59.0637C178.394 60.2354 180.028 61.8209 181.582 63.4345C183.339 65.2592 185.017 67.1393 186.617 69.0748C186.928 69.4511 187.248 69.8555 187.274 70.3322C187.298 70.7688 187.075 71.2026 186.828 71.6043C184.623 75.1945 180.287 77.5339 175.967 79.1127C170.1 81.2532 163.905 82.3503 157.662 82.3547C157.519 77.9182 157.774 73.4148 158.77 68.973Z" fill="#384955"/>
<path d="M162.286 93.7852C166.586 96.0534 171.513 96.8321 176.3 95.9999C181.087 95.1677 185.465 92.7714 188.753 89.1841C190.088 87.7285 191.22 86.0983 192.118 84.3379C190.249 83.5344 188.003 83.0456 185.541 82.9144C183.632 82.8179 181.717 82.9207 179.829 83.221C178.792 83.3797 177.764 83.5925 176.749 83.8585C175.002 84.3121 173.297 84.9197 171.656 85.6743C169.943 86.458 168.322 87.4298 166.822 88.5721C164.776 90.1562 163.214 91.9399 162.286 93.7852Z" fill="#FFCFBF"/>
<path d="M172.416 91.8797C170.297 92.1475 172.029 86.5393 172.029 86.5393L168.502 78.4713C167.472 76.1144 168.452 73.376 170.692 72.3529C172.932 71.3298 174.091 71.2227 175.12 73.5782L180.001 83.5839C181.024 85.9381 175.406 91.5007 172.416 91.8797Z" fill="#FFCFBF"/>
<path d="M162.905 65.2878C162.905 65.2878 160.349 79.884 166.777 81.7882C170.726 82.9546 174.253 79.7662 178.112 74.4432C181.432 69.8622 169.307 53.4917 162.905 65.2878Z" fill="#FFCFBF"/>
<path d="M174.421 79.7688C172.915 81.1695 171.261 82.0761 169.229 82.2797C168.798 82.3225 168.738 81.6181 169.17 81.5753C171.089 81.3838 172.613 80.504 174.03 79.189C174.354 78.8891 174.74 79.4702 174.421 79.7688Z" fill="#FF9F89"/>
<path d="M161.8 66.9028C161.573 66.0685 161.812 65.1619 162.254 64.4187C162.696 63.6755 163.322 63.0676 163.948 62.469C164.506 61.9334 165.08 61.383 165.782 61.0563C166.484 60.7295 167.281 60.6438 168.06 60.6144C170.449 60.522 172.902 60.9157 174.992 62.0874C175.039 62.0999 175.082 62.1226 175.118 62.1539C175.155 62.1852 175.184 62.2243 175.203 62.2683C175.223 62.3123 175.233 62.3601 175.231 62.4083C175.23 62.4564 175.218 62.5037 175.197 62.5467C174.74 64.1536 174.137 65.8516 174.589 67.4639C173.549 67.3299 172.533 67.0514 171.5 66.872C168.211 66.311 164.83 66.7809 161.817 68.2178L161.8 66.9028Z" fill="#384955"/>
<path d="M172.011 65.186L172.613 63.8041C174.775 63.7733 176.885 64.8606 178.278 66.5171C179.67 68.1736 180.382 70.3496 180.447 72.5176C180.479 73.5889 180.342 74.7111 179.702 75.5627C179.219 76.2055 178.501 76.6233 177.808 77.0237C177.67 77.123 177.504 77.1751 177.334 77.1723C177.164 77.1279 177.014 77.0269 176.909 76.8858C173.998 73.7201 172.336 69.4846 172.011 65.186Z" fill="#384955"/>
<path d="M171.083 59.8323C173.428 60.4188 175.178 62.0284 176.824 63.7157C179.007 65.9574 181.192 68.195 183.421 70.3898C183.54 70.5063 183.379 70.7098 183.26 70.592C181.222 68.5842 179.208 66.5515 177.219 64.4937C175.441 62.6538 173.605 60.7242 171.041 60.0827C170.881 60.0426 170.919 59.7868 171.082 59.827L171.083 59.8323Z" fill="#4D6371"/>
<path d="M173.39 64.0679C175.827 67.0273 178.13 70.4648 181.243 72.752C181.376 72.8511 181.215 73.0519 181.08 72.9542C177.945 70.6509 175.633 67.196 173.182 64.2219C173.075 64.088 173.285 63.9393 173.39 64.0679Z" fill="#4D6371"/>
<path d="M162.286 93.7852C166.586 96.0534 171.513 96.8321 176.3 95.9999C181.087 95.1677 185.465 92.7714 188.753 89.1841C190.088 87.7285 191.22 86.0982 192.118 84.3378C190.249 83.5344 188.003 83.0456 185.541 82.9144C183.842 84.595 180.45 87.6615 176.76 89.393C174.983 90.2286 173.138 90.7521 171.38 90.6638C169.742 90.5807 168.176 89.9674 166.821 88.5734C164.776 90.1562 163.214 91.9399 162.286 93.7852Z" fill="#384955"/>
<path d="M199.869 101.504L169.097 112.475C168.029 112.854 167.384 111.218 168.45 110.837L199.221 99.8661C200.289 99.4871 200.934 101.123 199.869 101.504Z" fill="#D3F0F4"/>
<path d="M202.456 108.456L180.356 116.338L152.226 126.367L141.709 130.116C140.641 130.497 139.996 128.86 141.061 128.48L163.162 120.599L191.291 110.57L201.808 106.82C202.876 106.441 203.521 108.077 202.456 108.456Z" fill="#D3F0F4"/>
<path d="M163.827 114.726L123.74 129.02L114.652 132.259C113.584 132.638 112.938 131.001 114.004 130.623L154.092 116.329L163.179 113.09C164.247 112.711 164.892 114.346 163.827 114.726Z" fill="#D3F0F4"/>
<path d="M135.8 132.353L116.528 139.193C115.46 139.57 114.814 137.934 115.881 137.556L135.152 130.716C136.22 130.339 136.867 131.975 135.8 132.353Z" fill="#D3F0F4"/>
<path d="M205.533 114.777C195.808 118.026 186.188 121.568 176.673 125.404C175.623 125.827 174.976 124.189 176.026 123.766C185.536 119.933 195.156 116.391 204.885 113.139C205.953 112.783 206.606 114.418 205.533 114.777Z" fill="#D3F0F4"/>
<path d="M171.184 127.34L119.361 146.337C118.301 146.727 117.651 145.09 118.714 144.7L170.536 125.703C171.604 125.314 172.246 126.951 171.184 127.34Z" fill="#D3F0F4"/>
<path d="M212.2 128.353L190.095 136.235L161.966 146.263L151.449 150.013C150.381 150.392 149.734 148.755 150.801 148.375L172.905 140.494L201.035 130.465L211.552 126.715C212.62 126.336 213.265 127.972 212.2 128.351V128.353Z" fill="#D3F0F4"/>
<path d="M145.544 152.256L126.271 159.085C125.203 159.463 124.557 157.828 125.623 157.449L144.895 150.609C145.963 150.231 146.609 151.867 145.544 152.245V152.256Z" fill="#D3F0F4"/>
<path d="M215.276 134.673C205.552 137.922 195.932 141.464 186.416 145.3C185.367 145.724 184.72 144.086 185.768 143.664C195.279 139.831 204.899 136.288 214.628 133.036C215.696 132.679 216.349 134.314 215.276 134.673Z" fill="#D3F0F4"/>
<path d="M180.928 147.237L129.105 166.233C128.044 166.623 127.395 164.987 128.458 164.597L180.279 145.6C181.34 145.211 181.989 146.847 180.928 147.237Z" fill="#D3F0F4"/>
<path d="M133.664 73.1805L98.076 85.7345C97.008 86.1095 96.3606 84.4731 97.4272 84.0968L133.017 71.5441C134.085 71.1678 134.731 72.8042 133.664 73.1805Z" fill="#D3F0F4"/>
<path d="M135.566 78.3481L99.9783 90.9021C98.9104 91.2771 98.2629 89.642 99.3296 89.2658L134.919 76.7117C135.987 76.3367 136.633 77.9718 135.566 78.3481Z" fill="#D3F0F4"/>
<path d="M137.441 84.8989L102.696 97.2495C101.628 97.6271 100.984 95.9907 102.049 95.6117L136.793 83.2626C137.861 82.8836 138.506 84.52 137.441 84.8989Z" fill="#D3F0F4"/>
<path d="M139.801 91.9587L121.63 98.1694C120.562 98.535 119.912 96.8986 120.983 96.5331L139.153 90.321C140.221 89.9567 140.872 91.5918 139.801 91.9587Z" fill="#D3F0F4"/>
<path d="M116.865 100.238L104.082 104.985C103.022 105.378 102.373 103.741 103.435 103.348L116.217 98.602C117.276 98.2083 117.924 99.8446 116.865 100.238Z" fill="#D3F0F4"/>
<path d="M142.144 98.389C130.447 102.763 118.644 106.834 106.735 110.6C105.667 110.94 105.009 109.305 106.087 108.964C117.993 105.198 129.795 101.128 141.495 96.7526C142.554 96.3509 143.202 97.9927 142.144 98.389Z" fill="#D3F0F4"/>
<path d="M349.579 187.425L306.932 213.497C280 197.333 270.644 191.759 270.629 191.728C269.459 190.375 263.945 183.528 260.828 181.551C263.873 175.391 265.448 172.21 266.733 169.606C266.733 169.573 265.531 120.623 265.552 120.607C267.849 123.338 297.091 161.727 311.027 169.12C311.531 169.388 311.37 169.268 311.44 169.388C312.189 170.619 328.577 177.609 348.631 185.87L349.579 187.425Z" fill="#FDBAA0"/>
<path d="M272.131 131.347C271.564 131.652 258.596 134.069 259.959 135.749C265.277 142.31 266.739 152.41 264.526 156C260.287 162.876 252.119 160.079 251.236 159.721L272.496 179.694C278.28 180.598 310.121 181.871 310.084 179.926C309.933 171.94 273.578 130.569 272.131 131.347Z" fill="#FDBAA0"/>
<path d="M318.084 174.083C318.084 174.083 303.21 165.064 296.413 153.655C286.966 137.796 278.283 118.423 276.122 116.239C272.416 112.49 260.317 105.074 257.023 104.731C253.73 104.388 243.043 102.588 240.879 103.435C238.715 104.281 245.183 111.801 253.267 116.12C261.35 120.439 270.037 127.922 270.037 127.922L282.986 168.34L318.084 174.083Z" fill="#FDBAA0"/>
<path d="M284.812 142.247C284.812 142.247 270.395 114.624 262.896 111.263C255.397 107.902 246.723 105.514 241.67 108.352C236.617 111.19 227.308 119.744 227.542 121.412C227.775 123.081 235.858 123.251 241.271 121.096C246.683 118.942 261.247 125.34 261.247 125.34L277.248 143.079L284.812 142.247Z" fill="#FDBAA0"/>
<path d="M283.389 169.582C283.389 169.582 269.327 125.313 265.554 120.614C261.781 115.915 244.81 117.189 239.522 118.172C234.234 119.154 223.87 131.767 223.877 135.398C223.886 139.853 232.988 136.769 238.741 132.586C244.026 128.744 251.682 130.854 254.307 130.845C255.07 130.845 256.576 131.986 258.178 133.684C260.27 135.897 262.534 139.052 263.555 141.829C267.014 151.234 256.441 160.577 256.441 160.577L283.389 169.582Z" fill="#FDBAA0"/>
<path d="M247.458 110.145C249.95 110.356 252.439 110.595 254.926 110.864C257.35 111.132 259.866 111.295 262.18 112.107C266.33 113.556 269.169 117.171 271.788 120.519C272.189 121.033 272.96 120.37 272.557 119.849C269.887 116.44 266.989 112.829 262.812 111.252C260.542 110.395 258.081 110.189 255.69 109.923C252.979 109.622 250.264 109.357 247.546 109.129C246.895 109.074 246.805 110.086 247.455 110.141L247.458 110.145Z" fill="#EF9F8A"/>
<path d="M145.696 244.45L267.595 218.027L233.15 58.133L129.416 80.6179L114.45 99.4041L145.696 244.45Z" fill="white"/>
<path d="M185.124 100.999C186.093 105.499 188.37 109.609 191.668 112.81C194.966 116.011 199.136 118.16 203.652 118.983C208.167 119.807 212.824 119.27 217.035 117.438C221.245 115.607 224.82 112.564 227.306 108.695C229.793 104.826 231.08 100.304 231.004 95.7016C230.929 91.0988 229.494 86.6218 226.882 82.8368C224.27 79.0518 220.598 76.1288 216.329 74.4374C212.061 72.746 207.389 72.3622 202.903 73.3345C199.918 73.9678 197.088 75.1878 194.576 76.9241C192.064 78.6604 189.92 80.8786 188.267 83.4506C186.614 86.0226 185.485 88.8975 184.945 91.9095C184.406 94.9214 184.467 98.0106 185.124 100.999Z" fill="#E9F4F6"/>
<path d="M210.061 80.346C211.693 80.2322 213.436 80.65 214.568 81.9529C215.094 82.5603 215.42 83.3155 215.503 84.1156C215.592 84.9512 215.479 85.7854 215.428 86.6184C215.375 87.4767 215.392 88.3592 215.81 89.1372C216.21 89.8684 216.856 90.4763 217.011 91.3253C217.171 92.2064 216.724 93.0809 216.978 93.9539C217.111 94.4025 217.365 94.8003 217.597 95.1993C217.835 95.598 218.021 96.0255 218.151 96.4715C218.433 97.4771 218.418 98.5671 218.313 99.5929C218.231 100.364 218.027 101.181 217.358 101.623C217.225 101.707 217.121 101.489 217.248 101.406C217.866 101.004 218.021 100.179 218.086 99.4764C218.171 98.5564 218.186 97.6017 217.966 96.6964C217.85 96.2363 217.671 95.795 217.432 95.3854C217.206 95.0294 217.008 94.6565 216.839 94.27C216.528 93.4665 216.766 92.7247 216.807 91.9065C216.852 91.0012 216.32 90.3638 215.85 89.6554C215.43 89.0266 215.195 88.2911 215.174 87.5343C215.108 85.9475 215.663 84.2575 214.853 82.7751C213.895 81.0249 211.865 80.4572 210.047 80.5844C209.894 80.5951 209.913 80.3514 210.057 80.3407L210.061 80.346Z" fill="#384955"/>
<path d="M205.187 92.2171C204.784 90.0517 204.264 87.9096 203.631 85.8002L209.593 80.3179C210.842 80.4679 212.143 80.7678 213.089 81.6275C214.517 82.9251 214.754 85.1092 214.62 87.0562C214.487 89.0033 214.086 90.9905 214.635 92.8653C215.213 94.8619 216.792 96.4661 217.236 98.4975C217.723 100.728 216.685 103.096 215.01 104.569C213.335 106.042 211.128 106.726 208.925 106.994C208.816 107.015 208.703 107.011 208.595 106.981C208.398 106.91 208.295 106.69 208.216 106.491C206.418 101.963 206.082 97.0071 205.187 92.2171Z" fill="#384955"/>
<path d="M193.546 114.445C195.792 116.199 198.339 117.525 201.061 118.358C204.438 118.209 208.613 117.653 213.076 116.688C216.299 116 219.476 115.113 222.589 114.03C225.336 111.75 227.524 108.866 228.983 105.603C227.413 104.224 225.287 103.175 222.8 102.523C220.891 102.039 218.931 101.786 216.962 101.769C215.719 101.753 214.475 101.814 213.24 101.954C212.157 102.078 211.082 102.256 210.017 102.489C209.32 102.641 208.637 102.813 207.968 103.004C207.701 103.08 207.437 103.16 207.175 103.243C206.994 103.3 206.813 103.357 206.641 103.419C206.297 103.533 205.959 103.653 205.625 103.778L205.402 103.863C203.25 104.674 201.213 105.762 199.341 107.1C199.048 107.311 198.762 107.53 198.487 107.751C195.987 109.742 194.254 112.063 193.546 114.445Z" fill="#FCBFAF"/>
<path d="M193.546 114.445C196.32 116.614 199.55 118.122 202.99 118.855C206.431 119.588 209.993 119.526 213.406 118.675C216.82 117.823 219.995 116.204 222.693 113.94C225.391 111.676 227.54 108.827 228.978 105.607C227.408 104.228 225.281 103.179 222.794 102.527C222.794 102.527 214.316 115.726 199.555 107.228C199.48 107.186 199.404 107.143 199.329 107.095C199.036 107.306 198.75 107.524 198.475 107.745C195.987 109.742 194.254 112.063 193.546 114.445Z" fill="#FF8D67"/>
<path d="M211.766 105.473C213.668 104.803 213.475 103.289 213.088 101.082L211.551 92.3269C211.12 89.8683 208.912 88.1757 206.62 88.5359C204.328 88.8962 204.186 89.3997 204.617 91.8582L206.247 102.329C206.678 104.786 209.687 106.363 211.766 105.473Z" fill="#FCBFAF"/>
<path d="M209.36 81.3905C209.36 81.3905 218.556 90.7642 214.967 95.4631C212.762 98.3462 208.65 97.8253 203.229 95.9077C198.56 94.2566 198.862 76.0408 209.36 81.3905Z" fill="#FCBFAF"/>
<path d="M208.534 97.9096C210.308 98.1614 211.938 97.9766 213.474 97.0821C213.801 96.8906 213.487 96.3456 213.16 96.5357C211.703 97.3807 210.181 97.5213 208.513 97.2843C208.131 97.2307 208.152 97.8561 208.529 97.9096H208.534Z" fill="#F3A99C"/>
<path d="M197.845 92.8746C197.556 91.5717 197.54 90.2272 197.524 88.8948C197.508 87.5276 197.499 86.1229 197.965 84.8481C198.746 82.7149 200.715 81.3142 202.684 80.2764L206.506 81.2834C205.705 81.5231 205.179 82.2703 205.266 82.9465C205.353 83.6228 205.545 84.299 205.484 84.978C205.35 86.3934 204.182 87.4325 203.601 88.7181C203.213 89.5818 203.608 90.5928 203.786 91.5302C203.943 92.3604 203.81 93.1371 203.824 93.9807C203.824 94.3958 203.751 94.8163 203.844 95.2207C203.944 95.6466 204.225 96.0001 204.422 96.3884C204.744 96.9994 204.817 97.7119 204.625 98.3757C204.418 99.0224 203.883 99.5621 203.232 99.688C202.11 99.9062 201.105 98.9448 200.397 98.0114C199.24 96.4781 198.268 94.7587 197.845 92.8746Z" fill="#384955"/>
<path d="M192.412 105.634C192.269 104.153 192.65 102.688 192.751 101.2C192.859 99.6076 192.64 98.0034 192.255 96.4514C191.831 94.7413 191.489 93.0246 191.533 91.2664C191.605 88.4302 192.951 85.8551 195.525 82.0748C198.778 77.2969 202.788 75.1931 207.079 76.2751C211.37 77.3571 210.399 82.5328 210.204 82.3011C206.853 78.4338 202.34 83.9991 202.27 88.9229L204.673 92.2011C204.557 93.3481 204.862 94.4983 205.53 95.4363C205.896 95.9425 206.37 96.3911 206.557 96.9883C206.813 97.8079 206.465 98.6944 206.574 99.5447C206.716 100.649 207.593 101.52 207.88 102.596C208.263 104.039 207.459 105.608 206.241 106.401C205.022 107.194 203.491 107.326 202.05 107.147C201.516 107.081 200.982 106.975 200.448 107.013C199.443 107.093 198.563 107.682 197.693 108.195C196.822 108.708 195.824 109.171 194.84 108.968C193.425 108.691 192.554 107.116 192.412 105.634Z" fill="#384955"/>
<path d="M205.508 91.794C205.508 91.794 203.505 90.0438 202.704 90.9182C201.903 91.7926 202.854 94.0383 203.939 94.1321C205.024 94.2258 205.597 92.4515 205.549 92.1234L205.508 91.794Z" fill="#FCBFAF"/>
<path d="M204.803 93.8602C204.927 93.6018 204.9 93.8187 204.764 93.7906C204.684 93.793 204.604 93.802 204.525 93.8174C204.245 93.8205 203.969 93.7499 203.724 93.6125C203.302 93.3795 203.031 92.9777 202.79 92.5412C202.656 92.2881 202.479 92.035 202.523 91.7177C202.604 91.091 203.19 91.0053 203.625 91.245C203.964 91.4351 204.175 90.8513 203.839 90.6638C203.133 90.2621 202.27 90.5433 201.998 91.3681C201.738 92.1609 202.332 93.117 202.842 93.6714C203.045 93.8992 203.291 94.0843 203.566 94.216C203.841 94.3477 204.139 94.4234 204.444 94.4387C204.751 94.4481 205.19 94.4267 205.348 94.0986C205.52 93.741 204.97 93.5 204.8 93.8549L204.803 93.8602Z" fill="#FDBAA0"/>
<path d="M206.837 81.1347C206.018 80.3313 204.675 80.2536 203.831 81.033C203.433 81.4025 203.174 81.8988 203.099 82.4377C203.022 83.0202 203.204 83.5947 203.358 84.1504C203.504 84.6767 203.643 85.2284 203.533 85.7734C203.43 86.2836 203.11 86.688 202.743 87.0268C202.376 87.3656 201.927 87.6883 201.572 88.082C201.195 88.5023 200.896 88.9878 200.691 89.5148C200.473 90.0608 200.369 90.6457 200.385 91.2336C200.4 91.8215 200.535 92.3999 200.782 92.9335C201.031 93.4706 201.4 93.9433 201.859 94.3155C202.269 94.6422 202.754 94.89 203.061 95.3305C203.783 96.3523 203.077 97.5776 202.75 98.5859C202.536 99.2407 202.519 99.8848 202.839 100.514C203.129 101.087 203.585 101.54 204.041 101.967C204.923 102.784 206.043 103.795 205.844 105.153C205.676 106.331 204.509 106.808 203.536 107.135C203.392 107.184 203.342 106.945 203.485 106.896C204.501 106.552 205.775 105.987 205.612 104.651C205.453 103.346 204.277 102.579 203.446 101.727C203.014 101.316 202.679 100.813 202.467 100.254C202.294 99.6971 202.308 99.0986 202.505 98.5497C202.7 97.9338 203.015 97.3553 203.102 96.7058C203.158 96.3955 203.125 96.0757 203.009 95.7829C202.892 95.4901 202.696 95.236 202.443 95.0493C201.998 94.6971 201.527 94.4159 201.154 93.978C200.804 93.5588 200.536 93.0773 200.364 92.5586C200.01 91.4946 200.057 90.3371 200.497 89.3059C200.698 88.8376 200.968 88.4024 201.298 88.015C201.659 87.5892 202.099 87.2678 202.512 86.8982C202.955 86.4965 203.313 86.0291 203.32 85.3944C203.33 84.8012 203.103 84.2281 202.962 83.6616C202.814 83.0697 202.766 82.4738 202.973 81.8953C203.153 81.3808 203.492 80.9371 203.94 80.6286C204.883 79.9898 206.183 80.1773 206.994 80.9754C207.104 81.0852 206.929 81.2432 206.82 81.1387L206.837 81.1347Z" fill="#4D6371"/>
<path d="M206.227 80.6138C204.428 79.1328 201.555 79.1864 199.945 80.9017C199.511 81.3637 199.164 81.965 199.101 82.6171C199.028 83.3724 199.439 83.9562 199.712 84.6258C200.224 85.8752 199.955 87.2826 199.376 88.4422C198.742 89.7077 197.755 90.7267 196.912 91.8395C196.111 92.8934 195.363 94.124 195.336 95.51C195.317 96.1558 195.471 96.7951 195.782 97.3606C196.112 97.9351 196.614 98.29 197.199 98.5497C197.723 98.7814 198.284 98.9689 198.727 99.3532C198.95 99.551 199.131 99.7922 199.259 100.062C199.386 100.332 199.457 100.625 199.468 100.924C199.516 102.121 198.55 102.917 197.823 103.695C197.362 104.166 197.015 104.738 196.81 105.366C196.61 106.017 196.479 106.973 197.024 107.5C197.138 107.623 197.286 107.709 197.45 107.746C197.613 107.784 197.784 107.771 197.94 107.711C198.073 107.648 198.191 107.865 198.052 107.927C197.555 108.152 196.976 107.913 196.681 107.455C196.302 106.866 196.371 106.082 196.547 105.446C196.72 104.817 197.033 104.236 197.464 103.747C197.872 103.277 198.349 102.872 198.723 102.373C199.124 101.837 199.348 101.207 199.18 100.53C198.993 99.7764 198.415 99.3438 197.753 99.0573C197.196 98.8095 196.611 98.6113 196.151 98.1935C195.7 97.7706 195.383 97.2245 195.239 96.6228C194.465 93.6513 197.123 91.4592 198.587 89.322C199.42 88.1074 200.072 86.5407 199.614 85.0288C199.399 84.3218 198.912 83.7272 198.869 82.9666C198.852 82.3487 199.035 81.7419 199.392 81.2378C200.727 79.2439 203.589 78.8275 205.621 79.9202C205.885 80.0631 206.134 80.2318 206.365 80.4237C206.484 80.5214 206.365 80.7263 206.231 80.6272L206.227 80.6138Z" fill="#4D6371"/>
<path d="M197.044 100.111C197.565 100.13 197.962 100.6 198.004 101.118C198.054 101.773 197.649 102.323 197.203 102.738C196.683 103.225 196.135 103.66 195.672 104.211C195.176 104.779 194.794 105.437 194.547 106.15C194.271 106.951 194.243 107.818 194.469 108.635C194.511 108.786 194.28 108.835 194.236 108.684C193.768 107.06 194.394 105.394 195.406 104.155C195.663 103.843 195.942 103.548 196.239 103.273C196.561 102.971 196.916 102.708 197.22 102.388C197.524 102.068 197.754 101.697 197.769 101.257C197.783 100.818 197.483 100.376 197.031 100.36C196.998 100.359 196.968 100.345 196.946 100.321C196.924 100.297 196.913 100.265 196.914 100.233C196.916 100.201 196.93 100.17 196.954 100.148C196.978 100.127 197.009 100.115 197.041 100.116L197.044 100.111Z" fill="#4D6371"/>
<path d="M202.098 96.7058C202.061 97.1116 201.954 97.5078 201.78 97.8762C201.715 98.0168 201.513 97.8829 201.58 97.7423C201.735 97.411 201.83 97.0545 201.86 96.6897C201.863 96.6581 201.877 96.6287 201.901 96.6078C201.925 96.587 201.956 96.5764 201.987 96.5786C202.019 96.5807 202.048 96.5953 202.069 96.6192C202.09 96.643 202.1 96.6742 202.098 96.7058Z" fill="#4D6371"/>
<path d="M196.571 89.8898L196.037 90.7562C195.956 90.8901 195.756 90.7562 195.837 90.6223L196.371 89.7559C196.452 89.622 196.653 89.7559 196.571 89.8898Z" fill="#4D6371"/>
<path d="M200.202 201.327C212.399 198.684 220.178 186.58 217.543 174.346C214.907 162.111 202.839 154.307 190.641 156.951C178.444 159.594 170.666 171.698 173.301 183.935C175.936 196.171 188.005 203.972 200.202 201.327ZM191.377 160.364C201.698 158.126 211.909 164.729 214.14 175.083C216.37 185.437 209.788 195.677 199.467 197.914C189.146 200.15 178.935 193.55 176.704 183.197C174.473 172.844 181.056 162.6 191.377 160.364Z" fill="#8FCEC5"/>
<path d="M210.08 174.443L206.805 182.344C206.282 183.608 205.758 184.872 205.234 186.135C204.904 186.938 204.591 187.753 204.125 188.482C203.598 189.283 202.877 189.937 202.029 190.382C201.182 190.827 200.235 191.049 199.279 191.027C196.711 190.952 194.947 189.14 193.17 187.522C192.194 186.634 191.229 185.733 190.268 184.829C185.093 179.963 180.009 175.004 174.863 170.111C172.668 168.024 170.48 165.92 168.188 163.934C167.315 163.176 166.883 161.536 166.944 160.438C167.008 159.29 167.59 157.935 168.482 157.182C169.439 156.379 170.686 155.804 171.968 155.934C173.28 156.068 174.222 156.617 175.212 157.477C184.095 165.193 192.124 173.858 200.893 181.703L201.437 182.185C201.731 182.452 202.059 182.518 200.958 181.783C201.374 182.062 201.235 182.02 200.543 181.657C198.092 181.344 196.548 182.058 195.912 183.8C195.893 183.715 196.161 183.196 196.179 183.167L196.703 181.903C197.009 181.167 197.314 180.43 197.619 179.693L201.025 171.481C201.508 170.315 202.197 169.339 203.344 168.732C204.393 168.182 205.907 168 207.034 168.424C209.294 169.278 211.103 171.983 210.08 174.45V174.443Z" fill="#3298CB"/>
<path d="M231.434 124.05L197.735 131.058C196.638 131.287 196.267 129.585 197.367 129.35L231.066 122.343C232.163 122.115 232.534 123.816 231.434 124.05Z" fill="#C0E2E8"/>
<path d="M233.136 131.682L208.925 136.722L178.118 143.128L166.601 145.523C165.505 145.752 165.132 144.05 166.234 143.815L190.442 138.782L221.248 132.375L232.765 129.981C233.861 129.753 234.234 131.454 233.132 131.688L233.136 131.682Z" fill="#C0E2E8"/>
<path d="M191.91 132.646L171.943 136.797L147.935 141.789L138.056 143.843C136.959 144.072 136.588 142.37 137.688 142.136L157.654 137.985L181.662 132.993L191.541 130.937C192.637 130.71 193.01 132.417 191.908 132.646H191.91Z" fill="#C0E2E8"/>
<path d="M160.119 146.997L139.019 151.353C137.921 151.579 137.55 149.88 138.65 149.646L159.752 145.292C160.85 145.066 161.221 146.773 160.119 147V146.997Z" fill="#C0E2E8"/>
<path d="M235.441 138.731C224.822 140.716 214.271 143.024 203.787 145.655C202.699 145.923 202.332 144.22 203.418 143.948C213.898 141.318 224.45 139.01 235.074 137.023C236.174 136.817 236.542 138.525 235.441 138.731Z" fill="#C0E2E8"/>
<path d="M197.779 146.877L153.466 156.502L140.95 159.222C139.856 159.459 139.482 157.749 140.583 157.513L184.895 147.888L197.411 145.169C198.506 144.931 198.879 146.642 197.779 146.877Z" fill="#C0E2E8"/>
<path d="M168.686 95.5877L129.731 103.551C128.639 103.774 128.271 102.078 129.365 101.852L168.32 93.8897C169.412 93.666 169.781 95.3627 168.686 95.5877Z" fill="#C0E2E8"/>
<path d="M169.93 101.257L130.974 109.221C129.883 109.445 129.514 107.748 130.608 107.522L169.564 99.5594C170.657 99.3358 171.025 101.032 169.93 101.257Z" fill="#C0E2E8"/>
<path d="M170.946 108.368L132.899 116.242C131.807 116.467 131.439 114.769 132.533 114.543L170.58 106.67C171.671 106.444 172.04 108.143 170.946 108.368Z" fill="#C0E2E8"/>
<path d="M172.396 116.077L152.535 119.937C151.442 120.149 151.067 118.451 152.17 118.239L172.03 114.379C173.124 114.166 173.499 115.864 172.396 116.077Z" fill="#C0E2E8"/>
<path d="M147.262 121.408L133.232 124.516C132.142 124.757 131.775 123.059 132.866 122.817L146.896 119.716C147.986 119.475 148.353 121.173 147.262 121.415V121.408Z" fill="#C0E2E8"/>
<path d="M173.918 123.129C161.079 126.007 148.174 128.551 135.203 130.762C134.107 130.948 133.735 129.251 134.838 129.064C147.807 126.854 160.712 124.31 173.552 121.431C174.64 121.187 175.007 122.885 173.918 123.129Z" fill="#C0E2E8"/>
<path d="M129.416 80.6179L132.615 95.4658L114.45 99.4041L129.416 80.6179Z" fill="#AFD0D3"/>
<path d="M263.557 141.827C263.011 140.343 262.11 138.754 261.071 137.255C263.665 135.679 267.452 133.39 270.457 131.631C274.271 141.728 279.001 156.04 281.554 163.888L268.376 164.57L256.443 160.582C256.443 160.582 267.014 151.231 263.557 141.827Z" fill="#FDBAA0"/>
<path d="M275.421 195.241C260.424 192.524 243.192 175.037 239.181 169.304C231.68 158.583 220.616 153.403 220.665 151.317C220.714 149.231 225.373 144.741 235.272 149.185C244.679 153.407 251.559 161.186 257.441 160.318C259.767 159.976 274.116 159.188 274.116 159.188C274.116 159.188 281.148 196.277 275.421 195.241Z" fill="#FDBAA0"/>
<path d="M223.283 152.872C223.248 152.047 224.359 152.576 224.654 152.77C224.871 152.913 225.076 153.086 225.28 153.248C225.751 153.622 226.214 154.013 226.668 154.401C227.479 155.088 229.376 156.179 228.27 157.386C227.967 157.718 228.537 158.124 228.834 157.797C230.454 156.023 227.707 154.363 226.543 153.386C225.802 152.765 224.87 151.736 223.828 151.717C223.66 151.71 223.494 151.737 223.338 151.799C223.183 151.861 223.042 151.955 222.925 152.075C222.809 152.195 222.719 152.339 222.662 152.497C222.605 152.654 222.582 152.822 222.594 152.99C222.611 153.437 223.298 153.316 223.28 152.872H223.283Z" fill="#E79780"/>
<path d="M265.726 159.953C262.339 160.454 258.904 160.543 255.496 160.221C254.847 160.159 254.873 161.177 255.515 161.237C258.923 161.56 262.358 161.47 265.745 160.969C266.383 160.875 266.37 159.859 265.726 159.953Z" fill="#EF9F8A"/>
<path d="M273.051 195.191C276.228 195.611 279.457 195.343 282.521 194.405C283.128 194.22 282.788 193.298 282.181 193.481C278.502 194.602 276.673 194.674 273.209 194.22C272.584 194.137 272.422 195.11 273.051 195.191Z" fill="#EF9F8A"/>
<path d="M309.395 223.241C309.395 223.241 290.012 209.325 290.824 207.648C291.635 205.97 308.98 176.822 311.116 167.658C311.116 167.658 311.082 165.896 313.652 166.606C316.222 167.315 337.751 175.22 337.751 175.22L332.826 203.996L309.395 223.241Z" fill="white"/>
<path d="M408.269 211.715V250.5L396.227 291C379.753 278.64 303.026 224.338 302.972 221.416C302.959 220.771 303.192 219.953 303.622 218.995C304.126 217.874 304.896 216.555 305.854 215.092C310.747 207.593 320.479 196.234 323.93 187.186C325.854 182.136 327.401 178.071 329.032 175.121C329.505 174.248 330.045 173.414 330.649 172.626C332.597 170.139 334.848 169.102 338.062 169.699C340.078 170.066 397.32 207.571 408.269 211.715Z" fill="#384955"/>
<path d="M295.869 208.506C295.748 208.214 295.717 207.892 295.779 207.582C295.841 207.272 295.993 206.987 296.216 206.764C296.439 206.54 296.724 206.388 297.033 206.327C297.342 206.266 297.663 206.298 297.954 206.419C298.245 206.541 298.494 206.746 298.668 207.009C298.843 207.272 298.936 207.582 298.936 207.898C298.936 208.214 298.842 208.523 298.666 208.786C298.491 209.048 298.241 209.253 297.95 209.374C297.559 209.535 297.12 209.535 296.73 209.372C296.34 209.209 296.03 208.898 295.869 208.506Z" fill="#198DA5"/>
</g>
<defs>
<clipPath id="clip0_2_10">
<rect width="393" height="291" fill="white" transform="matrix(-1 0 0 1 393 0)"/>
</clipPath>
</defs>
</svg>
