<svg width="31" height="30" viewBox="0 0 31 30" fill="none" xmlns="http://www.w3.org/2000/svg">
    <path d="M22.772 10h2.53c.336 0 .658.132.895.366.237.235.37.553.37.884v15c0 .331-.133.65-.37.884a1.273 1.273 0 0 1-.895.366H5.061c-.336 0-.658-.132-.895-.366a1.242 1.242 0 0 1-.37-.884v-15c0-.332.133-.65.37-.884.237-.234.559-.366.895-.366h2.53V8.75c0-1.99.8-3.897 2.223-5.303a7.638 7.638 0 0 1 5.367-2.197c2.014 0 3.944.79 5.368 2.197a7.455 7.455 0 0 1 2.223 5.303V10zM6.326 12.5V25h17.711V12.5H6.326zm7.59 5h2.53V20h-2.53v-2.5zm-5.06 0h2.53V20h-2.53v-2.5zm10.12 0h2.531V20h-2.53v-2.5zm1.266-7.5V8.75a4.97 4.97 0 0 0-1.482-3.536A5.092 5.092 0 0 0 15.18 3.75c-1.342 0-2.629.527-3.578 1.464a4.97 4.97 0 0 0-1.482 3.536V10h10.121z" fill="#3298CB"/>
</svg>
